<svg width="250" height="250" viewBox="0 0 250 250" fill="none" xmlns="http://www.w3.org/2000/svg">
<path d="M125 0C55.9609 0 0 55.9609 0 125C0 194.039 55.9687 250 125 250C194.039 250 250 194.039 250 125C250 55.9609 194.039 0 125 0ZM141.148 148.125C143.75 150.383 145.773 158.344 145.773 162V194.375H127.297H108.797C108.797 194.375 108.852 183.398 108.797 175.875C83.4844 181.32 76.4219 162 76.4219 162C71.7969 152.75 67.1719 148.125 67.1719 148.125C57.9219 142.633 67.1719 143.5 67.1719 143.5C76.4219 143.5 81.0469 152.75 81.0469 152.75C89.1641 166.531 103.609 164.313 108.797 162C108.797 157.375 110.82 150.383 113.422 148.125C93.2187 145.852 76.4062 134.25 76.4062 111.125C76.4062 88 81.0469 83.375 85.6719 78.75C84.7344 76.4687 80.8672 68.0469 85.8125 55.625C85.8125 55.625 94.8984 55.625 104.148 69.5C108.734 64.9141 122.648 64.875 127.281 64.875C131.898 64.875 145.82 64.9141 150.398 69.5C159.648 55.625 168.758 55.625 168.758 55.625C173.703 68.0469 169.836 76.4687 168.898 78.75C173.523 83.375 178.148 88 178.148 111.125C178.156 134.25 161.359 145.852 141.148 148.125Z" fill="black"/>
</svg>
