<svg width="250" height="250" viewBox="0 0 250 250" fill="none" xmlns="http://www.w3.org/2000/svg">
<path d="M125 250C55.975 250 0 194.025 0 125C0 55.975 55.975 0 125 0C194.025 0 250 55.975 250 125C250 194.025 194.025 250 125 250Z" fill="url(#paint0_linear_35_183)"/>
<path d="M125 55.0498C147.775 55.0498 150.475 55.1248 159.475 55.5498C167.8 55.9248 172.325 57.3248 175.325 58.4998C179.3 60.0498 182.15 61.8998 185.125 64.8748C188.1 67.8498 189.95 70.6998 191.5 74.6748C192.675 77.6748 194.05 82.1998 194.45 90.5248C194.85 99.5248 194.95 102.225 194.95 125C194.95 147.775 194.875 150.475 194.45 159.475C194.075 167.8 192.675 172.325 191.5 175.325C189.95 179.3 188.1 182.15 185.125 185.125C182.15 188.1 179.3 189.95 175.325 191.5C172.325 192.675 167.8 194.05 159.475 194.45C150.475 194.85 147.775 194.95 125 194.95C102.225 194.95 99.5249 194.875 90.5249 194.45C82.1999 194.075 77.6749 192.675 74.6749 191.5C70.6999 189.95 67.8499 188.1 64.8749 185.125C61.8999 182.15 60.0499 179.3 58.4999 175.325C57.3249 172.325 55.9499 167.8 55.5499 159.475C55.1499 150.475 55.0499 147.775 55.0499 125C55.0499 102.225 55.1249 99.5248 55.5499 90.5248C55.9249 82.1998 57.3249 77.6748 58.4999 74.6748C60.0499 70.6998 61.8999 67.8498 64.8749 64.8748C67.8499 61.8998 70.6999 60.0498 74.6749 58.4998C77.6749 57.3248 82.1999 55.9498 90.5249 55.5498C99.5249 55.1248 102.225 55.0498 125 55.0498ZM125 39.6748C101.825 39.6748 98.9249 39.7748 89.8249 40.1998C80.7499 40.6248 74.5499 42.0498 69.0999 44.1748C63.4999 46.3248 58.7249 49.2498 53.9999 53.9998C49.2499 58.7498 46.3499 63.4998 44.1499 69.1248C42.0499 74.5498 40.5999 80.7498 40.1749 89.8498C39.7499 98.9498 39.6499 101.85 39.6499 125.025C39.6499 148.2 39.7499 151.1 40.1749 160.2C40.5999 169.275 42.0249 175.475 44.1499 180.925C46.3249 186.5 49.2499 191.275 53.9999 196C58.7499 200.75 63.4999 203.65 69.1249 205.85C74.5499 207.95 80.7499 209.4 89.8499 209.825C98.9499 210.25 101.85 210.35 125.025 210.35C148.2 210.35 151.1 210.25 160.2 209.825C169.275 209.4 175.475 207.975 180.925 205.85C186.5 203.675 191.275 200.75 196 196C200.75 191.25 203.65 186.5 205.85 180.875C207.95 175.45 209.4 169.25 209.825 160.15C210.25 151.05 210.35 148.15 210.35 124.975C210.35 101.8 210.25 98.8998 209.825 89.7998C209.4 80.7248 207.975 74.5248 205.85 69.0748C203.675 63.4998 200.75 58.7248 196 53.9998C191.25 49.2498 186.5 46.3498 180.875 44.1498C175.45 42.0498 169.25 40.5998 160.15 40.1748C151.075 39.7748 148.175 39.6748 125 39.6748Z" fill="white"/>
<path d="M125 81.1748C100.8 81.1748 81.1748 100.8 81.1748 125C81.1748 149.2 100.8 168.825 125 168.825C149.2 168.825 168.825 149.2 168.825 125C168.825 100.8 149.2 81.1748 125 81.1748ZM125 153.45C109.3 153.45 96.5498 140.725 96.5498 125C96.5498 109.275 109.3 96.5498 125 96.5498C140.7 96.5498 153.45 109.275 153.45 125C153.45 140.725 140.7 153.45 125 153.45Z" fill="white"/>
<path d="M170.55 89.7002C176.211 89.7002 180.8 85.1111 180.8 79.4502C180.8 73.7893 176.211 69.2002 170.55 69.2002C164.889 69.2002 160.3 73.7893 160.3 79.4502C160.3 85.1111 164.889 89.7002 170.55 89.7002Z" fill="white"/>
<defs>
<linearGradient id="paint0_linear_35_183" x1="36.6116" y1="213.388" x2="213.388" y2="36.6116" gradientUnits="userSpaceOnUse">
<stop stop-color="#FFD521"/>
<stop offset="0.0551048" stop-color="#FFD020"/>
<stop offset="0.1241" stop-color="#FEC01E"/>
<stop offset="0.2004" stop-color="#FCA71B"/>
<stop offset="0.2821" stop-color="#FA8316"/>
<stop offset="0.3681" stop-color="#F85510"/>
<stop offset="0.4563" stop-color="#F51E09"/>
<stop offset="0.5" stop-color="#F30005"/>
<stop offset="0.5035" stop-color="#F20007"/>
<stop offset="0.5966" stop-color="#E1003B"/>
<stop offset="0.6879" stop-color="#D30067"/>
<stop offset="0.7757" stop-color="#C70088"/>
<stop offset="0.8589" stop-color="#BF00A0"/>
<stop offset="0.9357" stop-color="#BB00AF"/>
<stop offset="1" stop-color="#B900B4"/>
</linearGradient>
</defs>
</svg>
