<svg width="250" height="250" viewBox="0 0 250 250" fill="none" xmlns="http://www.w3.org/2000/svg">
<path d="M125 250C194.036 250 250 194.036 250 125C250 55.9644 194.036 0 125 0C55.9644 0 0 55.9644 0 125C0 194.036 55.9644 250 125 250Z" fill="#007BB5"/>
<path d="M85.9375 85.9375H54.6875V195.312H85.9375V85.9375Z" fill="white"/>
<path d="M160.148 85.9375C138.344 85.9375 134.594 93.8906 132.812 101.562V85.9375H101.562V195.312H132.812V132.812C132.812 122.68 138.305 117.188 148.438 117.188C158.328 117.188 164.062 122.562 164.062 132.812V195.312H195.312V140.625C195.312 109.375 191.242 85.9375 160.148 85.9375Z" fill="white"/>
<path d="M70.3125 78.125C78.9419 78.125 85.9375 71.1294 85.9375 62.5C85.9375 53.8706 78.9419 46.875 70.3125 46.875C61.6831 46.875 54.6875 53.8706 54.6875 62.5C54.6875 71.1294 61.6831 78.125 70.3125 78.125Z" fill="white"/>
</svg>
