<svg width="89" height="85" viewBox="0 0 89 85" fill="none" xmlns="http://www.w3.org/2000/svg">
<path d="M46.0182 0.000964014C45.8461 0.00846401 45.6762 0.0414289 45.5128 0.0961789C27.1476 0.314804 10.3753 12.5807 5.39805 31.1509C-0.530058 53.275 12.5281 76.0013 34.4606 82.2886C34.6492 82.4296 34.863 82.5342 35.0904 82.5961C35.0942 82.5986 35.1017 82.5999 35.1054 82.6036C53.8817 87.6347 73.171 79.0594 82.4272 62.9234C83.3587 61.2966 81.5901 59.4607 79.9296 60.3307C72.863 64.0481 64.4612 65.2236 56.1552 63.004C56.144 63.0014 56.1365 63.0002 56.1252 62.9965C38.5966 58.2996 28.1888 40.2711 32.8855 22.7425C35.112 14.4354 40.3348 7.73763 47.0871 3.47253C47.0946 3.46885 47.0946 3.46129 47.1021 3.45754C47.7129 3.07327 48.049 2.37263 47.9664 1.65578C47.855 0.712467 47.0559 0.00144375 46.106 0.00050625C46.076 -0.00016875 46.0475 -0.00016875 46.0183 0.00050625L46.0182 0.000964014Z" fill="#6F6F6F"/>
<path fill-rule="evenodd" clip-rule="evenodd" d="M80.0217 4.62662C78.9862 4.64162 78.1598 5.49536 78.176 6.53092V24.0125C78.14 26.5481 81.9619 26.5481 81.926 24.0125V6.53092C81.9425 5.47241 81.0802 4.61005 80.0217 4.62662Z" fill="#6F6F6F"/>
<path fill-rule="evenodd" clip-rule="evenodd" d="M88.7103 15.2411C88.6953 14.2055 87.8416 13.3792 86.806 13.3954H73.2933C70.7577 13.3579 70.7577 17.1812 73.2933 17.1454H86.806C87.8645 17.1604 88.7269 16.2996 88.7103 15.2411V15.2411Z" fill="#6F6F6F"/>
<path fill-rule="evenodd" clip-rule="evenodd" d="M61.43 27.631C60.3944 27.646 59.568 28.4997 59.5842 29.5353V45.0323C59.5482 47.5679 63.3701 47.5679 63.3342 45.0323V29.5353C63.3507 28.4768 62.4885 27.6144 61.43 27.631Z" fill="#6F6F6F"/>
<path fill-rule="evenodd" clip-rule="evenodd" d="M69.1263 37.2531C69.1113 36.2175 68.2576 35.3912 67.222 35.4074H55.6937C53.1581 35.3699 53.1581 39.1933 55.6937 39.1574H67.222C68.2805 39.1724 69.1429 38.3116 69.1263 37.2531Z" fill="#6F6F6F"/>
<path d="M42.0495 0.000964014C41.8773 0.00846401 41.7074 0.0414289 41.5441 0.0961789C23.1789 0.314804 6.40653 12.5807 1.4293 31.1509C-4.49881 53.275 8.55933 76.0013 30.4918 82.2886C30.6804 82.4296 30.8943 82.5342 31.1217 82.5961C31.1254 82.5986 31.1329 82.5999 31.1367 82.6036C49.913 87.6347 69.2022 79.0594 78.4585 62.9234C79.39 61.2966 77.6214 59.4607 75.9609 60.3307C68.8943 64.0481 60.4924 65.2236 52.1865 63.004C52.1752 63.0014 52.1677 63.0002 52.1565 62.9965C34.6279 58.2996 24.22 40.2711 28.9167 22.7425C31.1432 14.4354 36.3661 7.73763 43.1184 3.47253C43.1259 3.46885 43.1259 3.46129 43.1334 3.45754C43.7441 3.07327 44.0802 2.37263 43.9976 1.65578C43.8863 0.712467 43.0871 0.00144375 42.1373 0.00050625C42.1073 -0.00016875 42.0788 -0.00016875 42.0495 0.00050625L42.0495 0.000964014Z" fill="#FFCF60"/>
<path fill-rule="evenodd" clip-rule="evenodd" d="M76.053 4.62662C75.0174 4.64162 74.1911 5.49536 74.2073 6.53092V24.0125C74.1713 26.5481 77.9931 26.5481 77.9573 24.0125V6.53092C77.9738 5.47241 77.1115 4.61005 76.053 4.62662Z" fill="#FFCF60"/>
<path fill-rule="evenodd" clip-rule="evenodd" d="M84.7416 15.2411C84.7266 14.2055 83.8728 13.3792 82.8372 13.3954H69.3246C66.789 13.3579 66.789 17.1812 69.3246 17.1454H82.8372C83.8958 17.1604 84.7581 16.2996 84.7416 15.2411V15.2411Z" fill="#FFCF60"/>
<path fill-rule="evenodd" clip-rule="evenodd" d="M57.4612 27.631C56.4256 27.646 55.5993 28.4997 55.6155 29.5353V45.0323C55.5795 47.5679 59.4014 47.5679 59.3655 45.0323V29.5353C59.382 28.4768 58.5197 27.6144 57.4612 27.631Z" fill="#FFCF60"/>
<path fill-rule="evenodd" clip-rule="evenodd" d="M65.1576 37.2531C65.1426 36.2175 64.2888 35.3912 63.2533 35.4074H51.7249C49.1893 35.3699 49.1893 39.1933 51.7249 39.1574H63.2533C64.3118 39.1724 65.1742 38.3116 65.1576 37.2531Z" fill="#FFCF60"/>
</svg>
