<svg width="94" height="94" viewBox="0 0 94 94" fill="none" xmlns="http://www.w3.org/2000/svg">
<g clip-path="url(#clip0_35_72)">
<path d="M47 94C37.7041 94 28.6173 91.2436 20.8882 86.0791C13.1591 80.9148 7.135 73.5742 3.57768 64.9862C0.0203652 56.3982 -0.910393 46.9479 0.903113 37.8307C2.71662 28.7137 7.19292 20.3391 13.766 13.766C20.3391 7.19292 28.7137 2.71662 37.8307 0.903113C46.9479 -0.910393 56.3982 0.0203652 64.9862 3.57768C73.5742 7.135 80.9148 13.1591 86.0791 20.8882C91.2436 28.6173 94 37.7041 94 47C94 59.4651 89.0484 71.4198 80.2341 80.2341C71.4198 89.0484 59.4651 94 47 94ZM47 7.23081C39.1344 7.23081 31.4454 9.5632 24.9054 13.9331C18.3654 18.303 13.2681 24.5141 10.258 31.781C7.24802 39.048 6.46044 47.0441 7.99495 54.7586C9.52947 62.4731 13.3171 69.5593 18.8789 75.1212C24.4408 80.6831 31.5269 84.4706 39.2414 86.0049C46.9559 87.5397 54.952 86.7519 62.219 83.7421C69.4859 80.7319 75.6971 75.6346 80.067 69.0947C84.4369 62.5545 86.7692 54.8656 86.7692 47C86.7692 36.4525 82.5794 26.3371 75.1212 18.8789C67.663 11.4207 57.5475 7.23081 47 7.23081Z" fill="#487755"/>
<path d="M31.671 65.9446C31.1952 65.9471 30.7235 65.856 30.283 65.676C29.8425 65.4963 29.4419 65.2309 29.1041 64.8962C28.4307 64.2186 28.0527 63.3025 28.0527 62.3473C28.0527 61.3921 28.4307 60.4756 29.1041 59.7985L59.7988 29.1037C60.1336 28.7571 60.5331 28.4799 60.9749 28.2877C61.417 28.0956 61.8921 27.9924 62.374 27.9841C62.8556 27.9756 63.3343 28.0622 63.7826 28.2388C64.2309 28.4154 64.6401 28.6786 64.9869 29.0133C65.3332 29.3481 65.6105 29.7477 65.8029 30.1896C65.9948 30.6315 66.0979 31.1069 66.1065 31.5887C66.1149 32.0704 66.0281 32.5491 65.8517 32.9974C65.6749 33.4457 65.412 33.8548 65.0772 34.2014L34.2017 65.0769C33.5001 65.6789 32.5945 65.9894 31.671 65.9446Z" fill="#487755"/>
<path d="M62.3292 65.9446C61.3809 65.9406 60.472 65.5643 59.7985 64.8962L29.104 34.2016C28.5117 33.51 28.2021 32.6203 28.2373 31.7104C28.2725 30.8005 28.6497 29.9374 29.2935 29.2935C29.9374 28.6496 30.8006 28.2724 31.7104 28.2373C32.6204 28.2021 33.51 28.5116 34.2017 29.1039L65.0769 59.7985C65.4381 60.1369 65.7263 60.5454 65.9229 60.9995C66.12 61.4536 66.2216 61.9431 66.2216 62.4377C66.2216 62.9326 66.12 63.4222 65.9229 63.8762C65.7263 64.33 65.4381 64.7389 65.0769 65.0769C64.7031 65.4023 64.266 65.6471 63.7935 65.7964C63.3206 65.9457 62.8224 65.9963 62.3292 65.9446Z" fill="#487755"/>
</g>
<defs>
<clipPath id="clip0_35_72">
<rect width="94" height="94" fill="white"/>
</clipPath>
</defs>
</svg>
