<svg width="94" height="94" viewBox="0 0 94 94" fill="none" xmlns="http://www.w3.org/2000/svg">
<g clip-path="url(#clip0_35_135)">
<path d="M47 94C37.7041 94 28.6173 91.2436 20.8882 86.0791C13.1591 80.9148 7.135 73.5742 3.57768 64.9862C0.0203652 56.3982 -0.910393 46.9479 0.903113 37.8307C2.71662 28.7137 7.19292 20.3391 13.766 13.766C20.3391 7.19292 28.7137 2.71662 37.8307 0.903113C46.9479 -0.910393 56.3982 0.0203652 64.9862 3.57768C73.5742 7.135 80.9148 13.1591 86.0791 20.8882C91.2436 28.6173 94 37.7041 94 47C94 59.4651 89.0484 71.4198 80.2341 80.2341C71.4198 89.0484 59.4651 94 47 94ZM47 7.23081C39.1344 7.23081 31.4454 9.5632 24.9054 13.9331C18.3654 18.303 13.2681 24.5141 10.258 31.781C7.24802 39.048 6.46044 47.0441 7.99495 54.7586C9.52947 62.4731 13.3171 69.5593 18.8789 75.1212C24.4408 80.6831 31.5269 84.4706 39.2414 86.0049C46.9559 87.5397 54.952 86.7519 62.219 83.7421C69.4859 80.7319 75.6971 75.6346 80.067 69.0947C84.4369 62.5545 86.7692 54.8656 86.7692 47C86.7692 36.4525 82.5794 26.3371 75.1212 18.8789C67.663 11.4207 57.5475 7.23081 47 7.23081Z" fill="#487755"/>
<path d="M66.7759 45H28.2241C27.6343 45 27.0685 45.2634 26.6514 45.7322C26.2343 46.2011 26 46.837 26 47.5C26 48.163 26.2343 48.7989 26.6514 49.2678C27.0685 49.7366 27.6343 50 28.2241 50H66.7759C67.3657 50 67.9315 49.7366 68.3486 49.2678C68.7657 48.7989 69 48.163 69 47.5C69 46.837 68.7657 46.2011 68.3486 45.7322C67.9315 45.2634 67.3657 45 66.7759 45Z" fill="#487755"/>
<path d="M66.7759 54H28.2241C27.6343 54 27.0685 54.2634 26.6514 54.7322C26.2343 55.2011 26 55.837 26 56.5C26 57.163 26.2343 57.7989 26.6514 58.2678C27.0685 58.7366 27.6343 59 28.2241 59H66.7759C67.3657 59 67.9315 58.7366 68.3486 58.2678C68.7657 57.7989 69 57.163 69 56.5C69 55.837 68.7657 55.2011 68.3486 54.7322C67.9315 54.2634 67.3657 54 66.7759 54Z" fill="#487755"/>
<path d="M66.7759 35H28.2241C27.6343 35 27.0685 35.2634 26.6514 35.7322C26.2343 36.2011 26 36.837 26 37.5C26 38.163 26.2343 38.7989 26.6514 39.2678C27.0685 39.7366 27.6343 40 28.2241 40H66.7759C67.3657 40 67.9315 39.7366 68.3486 39.2678C68.7657 38.7989 69 38.163 69 37.5C69 36.837 68.7657 36.2011 68.3486 35.7322C67.9315 35.2634 67.3657 35 66.7759 35Z" fill="#487755"/>
</g>
<defs>
<clipPath id="clip0_35_135">
<rect width="94" height="94" fill="white"/>
</clipPath>
</defs>
</svg>
